<?xml version="1.0" encoding="UTF-8" standalone="no"?>
<!-- Created with Inkscape (http://www.inkscape.org/) -->

<svg
   xmlns:dc="http://purl.org/dc/elements/1.1/"
   xmlns:cc="http://creativecommons.org/ns#"
   xmlns:rdf="http://www.w3.org/1999/02/22-rdf-syntax-ns#"
   xmlns:svg="http://www.w3.org/2000/svg"
   xmlns="http://www.w3.org/2000/svg"
   xmlns:sodipodi="http://sodipodi.sourceforge.net/DTD/sodipodi-0.dtd"
   xmlns:inkscape="http://www.inkscape.org/namespaces/inkscape"
   id="svg2876"
   version="1.1"
   inkscape:version="0.47 r22583"
   width="18"
   height="18"
   sodipodi:docname="black_delete.png">
  <metadata
     id="metadata2882">
    <rdf:RDF>
      <cc:Work
         rdf:about="">
        <dc:format>image/svg+xml</dc:format>
        <dc:type
           rdf:resource="http://purl.org/dc/dcmitype/StillImage" />
        <dc:title></dc:title>
      </cc:Work>
    </rdf:RDF>
  </metadata>
  <defs
     id="defs2880">
    <inkscape:perspective
       sodipodi:type="inkscape:persp3d"
       inkscape:vp_x="0 : 0.5 : 1"
       inkscape:vp_y="0 : 1000 : 0"
       inkscape:vp_z="1 : 0.5 : 1"
       inkscape:persp3d-origin="0.5 : 0.33333333 : 1"
       id="perspective2884" />
  </defs>
  <sodipodi:namedview
     pagecolor="#ffffff"
     bordercolor="#666666"
     borderopacity="1"
     objecttolerance="10"
     gridtolerance="10"
     guidetolerance="10"
     inkscape:pageopacity="0"
     inkscape:pageshadow="2"
     inkscape:window-width="1346"
     inkscape:window-height="1404"
     id="namedview2878"
     showgrid="true"
     inkscape:snap-grids="false"
     inkscape:snap-to-guides="false"
     inkscape:zoom="26.222222"
     inkscape:cx="10.690671"
     inkscape:cy="13.633927"
     inkscape:window-x="0"
     inkscape:window-y="25"
     inkscape:window-maximized="1"
     inkscape:current-layer="svg2876">
    <inkscape:grid
       type="xygrid"
       id="grid2892" />
  </sodipodi:namedview>
  <path
     style="fill:#000000;fill-opacity:1;stroke:none"
     d="m 3.0381356,0.03813559 c -1.662,0 -3.00000001,1.33800001 -3.00000001,3.00000001 l 0,12.0000004 c 0,1.662 1.33800001,3 3.00000001,3 l 12.0000004,0 c 1.662,0 3,-1.338 3,-3 l 0,-12.0000004 c 0,-1.662 -1.338,-3.00000001 -3,-3.00000001 l -12.0000004,0 z m 2.84375,4.34375001 c 0.3834268,-0.0012 0.7677756,0.1446216 1.0625,0.4375 l 2.125,2.125 2.1250004,-2.125 c 0.589449,-0.5857568 1.539243,-0.5894489 2.125,0 0.585757,0.5894489 0.589449,1.5392432 0,2.125 l -2.125,2.09375 2.125,2.1250004 c 0.589449,0.585757 0.585757,1.535551 0,2.125 -0.585757,0.589449 -1.535551,0.585757 -2.125,0 l -2.1250004,-2.125 -2.125,2.125 c -0.5894489,0.585757 -1.5392432,0.589449 -2.125,0 -0.5857568,-0.589449 -0.5894489,-1.539243 0,-2.125 l 2.125,-2.1250004 -2.125,-2.09375 c -0.5894489,-0.5857568 -0.5857568,-1.5355511 0,-2.125 0.2928784,-0.2947244 0.6790732,-0.4362954 1.0625,-0.4375 z"
     id="rect2897" />
</svg>
