<?xml version="1.0" encoding="UTF-8" standalone="no"?>
<!-- Created with Inkscape (http://www.inkscape.org/) -->

<svg
   xmlns:dc="http://purl.org/dc/elements/1.1/"
   xmlns:cc="http://creativecommons.org/ns#"
   xmlns:rdf="http://www.w3.org/1999/02/22-rdf-syntax-ns#"
   xmlns:svg="http://www.w3.org/2000/svg"
   xmlns="http://www.w3.org/2000/svg"
   xmlns:sodipodi="http://sodipodi.sourceforge.net/DTD/sodipodi-0.dtd"
   xmlns:inkscape="http://www.inkscape.org/namespaces/inkscape"
   id="svg2816"
   version="1.1"
   inkscape:version="0.47 r22583"
   width="18"
   height="18"
   sodipodi:docname="minimize.svg">
  <metadata
     id="metadata2822">
    <rdf:RDF>
      <cc:Work
         rdf:about="">
        <dc:format>image/svg+xml</dc:format>
        <dc:type
           rdf:resource="http://purl.org/dc/dcmitype/StillImage" />
        <dc:title />
      </cc:Work>
    </rdf:RDF>
  </metadata>
  <defs
     id="defs2820">
    <inkscape:perspective
       sodipodi:type="inkscape:persp3d"
       inkscape:vp_x="0 : 0.5 : 1"
       inkscape:vp_y="0 : 1000 : 0"
       inkscape:vp_z="1 : 0.5 : 1"
       inkscape:persp3d-origin="0.5 : 0.33333333 : 1"
       id="perspective2824" />
  </defs>
  <sodipodi:namedview
     pagecolor="#ffffff"
     bordercolor="#666666"
     borderopacity="1"
     objecttolerance="10"
     gridtolerance="10"
     guidetolerance="10"
     inkscape:pageopacity="0"
     inkscape:pageshadow="2"
     inkscape:window-width="1346"
     inkscape:window-height="1404"
     id="namedview2818"
     showgrid="true"
     inkscape:snap-to-guides="false"
     inkscape:zoom="37.083822"
     inkscape:cx="8.9661568"
     inkscape:cy="8.002453"
     inkscape:window-x="0"
     inkscape:window-y="25"
     inkscape:window-maximized="1"
     inkscape:current-layer="svg2816">
    <inkscape:grid
       type="xygrid"
       id="grid2828" />
  </sodipodi:namedview>
  <path
     style="font-size:medium;font-style:normal;font-variant:normal;font-weight:normal;font-stretch:normal;text-indent:0;text-align:start;text-decoration:none;line-height:normal;letter-spacing:normal;word-spacing:normal;text-transform:none;direction:ltr;block-progression:tb;writing-mode:lr-tb;text-anchor:start;color:#000000;fill:#000000;fill-opacity:1;stroke:none;stroke-width:2;marker:none;visibility:visible;display:inline;overflow:visible;enable-background:accumulate;font-family:Bitstream Charter;-inkscape-font-specification:Bitstream Charter"
     d="M 4,0 C 1.8012972,0 0,1.8012972 0,4 l 0,10 c 0,2.198703 1.8012972,4 4,4 l 10,0 c 2.198703,0 4,-1.801297 4,-4 L 18,4 C 18,1.8012972 16.198703,0 14,0 L 4,0 z m 0,2 10,0 c 1.125297,0 2,0.8747028 2,2 l 0,10 c 0,1.125297 -0.874703,2 -2,2 L 4,16 C 2.8747028,16 2,15.125297 2,14 L 2,4 C 2,2.8747028 2.8747028,2 4,2 z M 4.90625,12 A 1.001098,1.001098 0 1 0 5,14 l 8,0 a 1.0001,1.0001 0 1 0 0,-2 l -8,0 a 1.0001,1.0001 0 0 0 -0.09375,0 z"
     id="path3688" />
</svg>
