<?xml version="1.0" encoding="UTF-8" standalone="no"?>
<!-- Created with Inkscape (http://www.inkscape.org/) -->

<svg
   xmlns:dc="http://purl.org/dc/elements/1.1/"
   xmlns:cc="http://creativecommons.org/ns#"
   xmlns:rdf="http://www.w3.org/1999/02/22-rdf-syntax-ns#"
   xmlns:svg="http://www.w3.org/2000/svg"
   xmlns="http://www.w3.org/2000/svg"
   xmlns:sodipodi="http://sodipodi.sourceforge.net/DTD/sodipodi-0.dtd"
   xmlns:inkscape="http://www.inkscape.org/namespaces/inkscape"
   id="svg2816"
   version="1.1"
   inkscape:version="0.47 r22583"
   width="18"
   height="18"
   sodipodi:docname="phone.svg">
  <metadata
     id="metadata2822">
    <rdf:RDF>
      <cc:Work
         rdf:about="">
        <dc:format>image/svg+xml</dc:format>
        <dc:type
           rdf:resource="http://purl.org/dc/dcmitype/StillImage" />
        <dc:title></dc:title>
      </cc:Work>
    </rdf:RDF>
  </metadata>
  <defs
     id="defs2820">
    <inkscape:perspective
       sodipodi:type="inkscape:persp3d"
       inkscape:vp_x="0 : 0.5 : 1"
       inkscape:vp_y="0 : 1000 : 0"
       inkscape:vp_z="1 : 0.5 : 1"
       inkscape:persp3d-origin="0.5 : 0.33333333 : 1"
       id="perspective2824" />
  </defs>
  <sodipodi:namedview
     pagecolor="#ffffff"
     bordercolor="#666666"
     borderopacity="1"
     objecttolerance="10"
     gridtolerance="10"
     guidetolerance="10"
     inkscape:pageopacity="0"
     inkscape:pageshadow="2"
     inkscape:window-width="1346"
     inkscape:window-height="1404"
     id="namedview2818"
     showgrid="true"
     inkscape:snap-to-guides="false"
     inkscape:zoom="26.222222"
     inkscape:cx="16.202618"
     inkscape:cy="1.5398587"
     inkscape:window-x="0"
     inkscape:window-y="25"
     inkscape:window-maximized="1"
     inkscape:current-layer="svg2816"
     showguides="true"
     inkscape:guide-bbox="true"
     inkscape:snap-grids="true">
    <inkscape:grid
       type="xygrid"
       id="grid2828" />
  </sodipodi:namedview>
  <path
     id="path3715"
     style="fill:#000000;fill-opacity:1;stroke:none"
     d="M 5,4 5,6.15625 C 2.0431509,7.9590487 1.6377641e-7,11.686915 0,16 l 0,2 18,0 0,-2 C 18,11.686915 15.956849,7.9590488 13,6.15625 L 13,4 11,4 11,5.28125 C 10.356147,5.1024904 9.6881213,5 9,5 8.3118787,5 7.643853,5.1024905 7,5.28125 L 7,4 5,4 z m 4,5 c 1.656854,0 3,1.343145 3,3 0,1.656854 -1.343146,3 -3,3 C 7.3431459,15 6,13.656854 6,12 6,10.343145 7.3431459,9 9,9 z M 9,0 C 4.0294373,0 0,2.2385764 0,5 0,5.8284272 0.67157288,6.5 1.5,6.5 2.3284271,6.5 3,5.8284272 3,5 3,2.9289322 5.6862915,2 9,2 c 3.313709,0 6,0.9289323 6,3 0,0.8284272 0.671573,1.5 1.5,1.5 C 17.328428,6.5 18,5.8284272 18,5 18,2.2385764 13.970563,0 9,0 z" />
</svg>
