<?xml version="1.0" encoding="UTF-8" standalone="no"?>
<!-- Created with Inkscape (http://www.inkscape.org/) -->

<svg
   xmlns:dc="http://purl.org/dc/elements/1.1/"
   xmlns:cc="http://creativecommons.org/ns#"
   xmlns:rdf="http://www.w3.org/1999/02/22-rdf-syntax-ns#"
   xmlns:svg="http://www.w3.org/2000/svg"
   xmlns="http://www.w3.org/2000/svg"
   xmlns:sodipodi="http://sodipodi.sourceforge.net/DTD/sodipodi-0.dtd"
   xmlns:inkscape="http://www.inkscape.org/namespaces/inkscape"
   id="svg2816"
   version="1.1"
   inkscape:version="0.47 r22583"
   width="18"
   height="18"
   sodipodi:docname="trash.svg">
  <metadata
     id="metadata2822">
    <rdf:RDF>
      <cc:Work
         rdf:about="">
        <dc:format>image/svg+xml</dc:format>
        <dc:type
           rdf:resource="http://purl.org/dc/dcmitype/StillImage" />
        <dc:title />
      </cc:Work>
    </rdf:RDF>
  </metadata>
  <defs
     id="defs2820">
    <inkscape:perspective
       sodipodi:type="inkscape:persp3d"
       inkscape:vp_x="0 : 0.5 : 1"
       inkscape:vp_y="0 : 1000 : 0"
       inkscape:vp_z="1 : 0.5 : 1"
       inkscape:persp3d-origin="0.5 : 0.33333333 : 1"
       id="perspective2824" />
  </defs>
  <sodipodi:namedview
     pagecolor="#ffffff"
     bordercolor="#666666"
     borderopacity="1"
     objecttolerance="10"
     gridtolerance="10"
     guidetolerance="10"
     inkscape:pageopacity="0"
     inkscape:pageshadow="2"
     inkscape:window-width="1346"
     inkscape:window-height="1390"
     id="namedview2818"
     showgrid="true"
     inkscape:snap-to-guides="false"
     inkscape:zoom="26.222222"
     inkscape:cx="7.3345374"
     inkscape:cy="10.499184"
     inkscape:window-x="0"
     inkscape:window-y="25"
     inkscape:window-maximized="1"
     inkscape:current-layer="svg2816">
    <inkscape:grid
       type="xygrid"
       id="grid2828" />
  </sodipodi:namedview>
  <path
     id="path3734"
     style="font-size:medium;font-style:normal;font-variant:normal;font-weight:normal;font-stretch:normal;text-indent:0;text-align:start;text-decoration:none;line-height:normal;letter-spacing:normal;word-spacing:normal;text-transform:none;direction:ltr;block-progression:tb;writing-mode:lr-tb;text-anchor:start;color:#000000;fill:#000000;fill-opacity:1;stroke:none;stroke-width:2;marker:none;visibility:visible;display:inline;overflow:visible;enable-background:accumulate;font-family:Bitstream Charter;-inkscape-font-specification:Bitstream Charter"
     d="M 0.90625,3 A 1.001098,1.001098 0 1 0 1,5 L 17,5 A 1.0001,1.0001 0 1 0 17,3 L 1,3 A 1.0001,1.0001 0 0 0 0.90625,3 z M 5,0 C 3.338,0 2,1.338 2,3 L 4,3 C 4,2.446 4.446,2 5,2 l 8,0 c 0.554,0 1,0.446 1,1 l 2,0 C 16,1.338 14.662,0 13,0 L 5,0 z m 5,6 0,1 0,7 0,1 2,0 0,-1 0,-7 0,-1 -2,0 z M 6,6 6,7 6,14 6,15 8,15 8,14 8,7 8,6 6,6 z m -4,0 0,9 c 0,1.662 1.338,3 3,3 l 8,0 c 1.662,0 3,-1.338 3,-3 l 0,-9 -2,0 0,9 c 0,0.554 -0.446,1 -1,1 L 5,16 C 4.446,16 4,15.554 4,15 L 4,6 2,6 z" />
</svg>
